
        <svg xmlns="http://www.w3.org/2000/svg" xmlns:xlink="http://www.w3.org/1999/xlink" version="1.1" width="3164.1025641025635" 
        height="3164.1025641025635" viewBox="0 0 3164.1025641025635 3164.1025641025635">
			
			<g transform="scale(8.205128205128204) translate(10, 10)">
				<defs id="SvgjsDefs1630"></defs><g id="SvgjsG1631" featureKey="rootContainer" transform="matrix(7.3125,0,0,7.3125,0,0)" fill="#27f2d7"><path xmlns="http://www.w3.org/2000/svg" d="M50 13.36V50H0V0h36.28L50 13.36z"></path></g><g id="SvgjsG1632" featureKey="nameFeature-0" transform="matrix(6.781683231970007,0,0,6.781683231970007,92.1492913068069,-6.699665460174629)" fill="#1e2022"><path d="M25.04 35.08 c0 -4.2 -2.2 -7.44 -6.24 -9.12 c-2.64 -1.08 -5.2 -1.12 -5.48 -1.12 c0 0 -1.6 -0.04 -3.12 -0.64 c-2.08 -0.84 -2.36 -2.12 -2.36 -3.24 c0 0 0.08 -1.56 1.16 -2.64 c0.92 -0.92 2.36 -1.36 4.32 -1.36 c3.04 0 4.12 1.32 4.68 2.32 c0.4 0.8 0.6 1.6 0.72 2.16 l0 0.12 c0.08 0.32 0.36 0.6 0.68 0.64 l4.84 0 c0.44 0 0.76 -0.36 0.76 -0.84 l0 -0.08 c-0.16 -1.6 -0.8 -4.84 -3.32 -7.4 c-2.6 -2.64 -6 -3.16 -8.36 -3.16 c-3.68 0 -6.64 1.08 -8.72 3.2 c-2.92 2.92 -3 6.64 -3 7.04 c0 4.2 2.2 7.4 6.24 9.04 c2.64 1.04 5.2 1.08 5.48 1.08 c0 0 1.6 0.04 3.12 0.68 c2.08 0.84 2.36 2.16 2.36 3.28 c0 0 -0.08 1 -0.64 1.92 c-0.84 1.36 -2.4 2.04 -4.84 2.04 c-2.28 0 -3.84 -0.72 -4.68 -2.12 c-0.4 -0.6 -0.6 -1.28 -0.68 -1.76 c0 -0.04 -0.04 -0.08 -0.04 -0.12 l0 -0.04 c-0.08 -0.32 -0.32 -0.52 -0.64 -0.56 l-4.92 0 c-0.4 0.04 -0.72 0.4 -0.72 0.8 c0 0.08 0.04 0.16 0.04 0.24 c0.12 1.04 0.48 2.68 1.4 4.36 c1.96 3.48 5.6 5.44 10.24 5.44 c5.88 0 8.76 -2.72 10.16 -5.04 c1.52 -2.44 1.56 -4.84 1.56 -5.12 z"></path></g>
			</g>
		</svg>
	